<svg width="24" height="24" fill="none" xmlns="http://www.w3.org/2000/svg"><path d="M6.946 14.967H1.27c-.306 0-.553.23-.553.512v2.86c0 .282.247.512.553.512h5.677c.306 0 .554-.23.554-.512v-2.86c0-.283-.248-.512-.554-.512zm7.893 0H9.162c-.306 0-.554.23-.554.512v2.86c0 .282.248.512.554.512h5.677c.305 0 .553-.23.553-.512v-2.86c0-.283-.248-.512-.553-.512zm7.892 0h-5.677c-.306 0-.554.23-.554.512v2.86c0 .282.248.512.554.512h5.677c.306 0 .554-.23.554-.512v-2.86c0-.283-.248-.512-.554-.512zM5.215 13.942h5.677c.306 0 .554-.23.554-.512v-2.86c0-.283-.248-.512-.554-.512H5.215c-.306 0-.553.23-.553.512v2.86c0 .283.247.512.553.512zm7.339-3.372v2.86c0 .283.248.512.554.512h5.677c.305 0 .554-.23.554-.512v-2.86c0-.283-.249-.512-.554-.512h-5.677c-.306 0-.554.23-.554.512zM9.162 9.034h5.677c.305 0 .553-.23.553-.513v-2.86c0-.282-.248-.511-.553-.511H9.162c-.306 0-.554.229-.554.512v2.86c0 .282.248.512.554.512z" fill="#034899"/></svg>