<svg width="18" height="18" fill="none" xmlns="http://www.w3.org/2000/svg"><path fill-rule="evenodd" clip-rule="evenodd" d="M17.188 6.142L10.439.517A2.254 2.254 0 0 0 9 0c-.526 0-1.036.183-1.44.517L.812 6.142c-.358.3-.614.7-.735 1.146-.12.446-.1.918.06 1.352.177.496.528.915.99 1.181v5.929c-.004.59.23 1.159.652 1.58.421.422.996.663 1.597.67h11.248a2.297 2.297 0 0 0 1.597-.67c.421-.421.656-.99.652-1.58V9.821a2.23 2.23 0 0 0 .99-1.181c.16-.434.18-.906.06-1.352a2.265 2.265 0 0 0-.735-1.146zm-2.564 1.733v7.875h-2.25v-5.625H5.627v5.625h-2.25V7.875H2.251L9 2.25l6.748 5.625h-1.124z" fill="#034899"/></svg>