<svg width="24" height="24" fill="none" xmlns="http://www.w3.org/2000/svg"><path fill-rule="evenodd" clip-rule="evenodd" d="M11 6h6a2 2 0 0 1 2 2v1a2 2 0 0 1-2 2h-6a2 2 0 0 1-2-2V8a2 2 0 0 1 2-2zm-3.874 4c.444 1.725 2.01 3 3.874 3h2v.172a2 2 0 0 0 .586 1.414 2 2 0 0 1 0 2.828A2 2 0 0 0 13 18.828V19a2 2 0 0 0 2 2h2a2 2 0 0 0 2-2v-6c0-.172-.022-.34-.063-.5A3.999 3.999 0 0 0 21 9V8a4 4 0 0 0-4-4h-6a4.002 4.002 0 0 0-3.874 3H5.5a1.5 1.5 0 0 0-1.415 1H3.5a.5.5 0 0 0 0 1h.585A1.5 1.5 0 0 0 5.5 10h1.626zM13 7.5a.5.5 0 0 1 .5-.5h4a.5.5 0 0 1 0 1h-4a.5.5 0 0 1-.5-.5z" fill="#034899"/></svg>