<svg width="24" height="24" fill="none" xmlns="http://www.w3.org/2000/svg"><path d="M16.125 2.375c-3.037 0-5.5 3.385-5.5 7.563 0 1.12.544 2.106 1.375 2.733v.017c0 2.178-.001 3.617-2.009 5.29a2.062 2.062 0 0 0 1.324 3.647 2.05 2.05 0 0 0 1.319-.478c3.176-2.647 3.46-5.43 3.485-7.772h.006v-.704A3.418 3.418 0 0 0 17.5 9.938a3.42 3.42 0 0 0-.953-2.366c0-.002.003-.004.005-.006-1.075-1.075-.427-5.191-.427-5.191zm5.5 5.5s-1.65.26-3.134.177a4.78 4.78 0 0 1-.376 4.46c2.106-.975 3.51-2.686 3.51-4.637zm-12.193.048c-2.065.154-4.37.79-6.58 3.443a2.062 2.062 0 1 0 3.17 2.643c1.239-1.488 2.352-1.874 3.73-1.974a4.758 4.758 0 0 1-.502-2.098c0-.692.067-1.365.182-2.014zm4.63.64a1.376 1.376 0 1 1 0 2.75 1.376 1.376 0 0 1 0-2.75zm-6.182.996c-.004.126-.005.253-.005.379 0 .345.03.687.091 1.028-.962.31-1.966.922-3 2.162a.693.693 0 0 1-.97.089.689.689 0 0 1-.088-.97c1.36-1.632 2.717-2.355 3.972-2.688zm6.182 5.191s.6.098.51.688c-.233 1.533-.967 3.11-2.82 4.654a.683.683 0 0 1-.44.158.686.686 0 0 1-.529-.247.69.69 0 0 1 .089-.97c1.45-1.208 2.051-2.381 2.307-3.598.048-.227.244-.75.883-.685z" fill="#034899"/></svg>