<svg width="16" height="18" fill="none" xmlns="http://www.w3.org/2000/svg"><path d="M0 3.62c0-1.075.35-1.945 1.047-2.61C1.746.337 2.661 0 3.792 0c1.148 0 2.071.333 2.77.998.698.657 1.047 1.551 1.047 2.681v.866c0 1.082-.35 1.952-1.048 2.61-.698.657-1.613.985-2.745.985-1.14 0-2.062-.328-2.769-.986C.35 6.49 0 5.595 0 4.473v-.854zm2.312.925c0 .481.136.87.409 1.166.28.289.646.433 1.095.433.45 0 .807-.148 1.072-.445.265-.296.397-.693.397-1.19v-.89c0-.48-.132-.87-.397-1.166-.265-.297-.63-.445-1.096-.445-.441 0-.798.148-1.071.445-.273.288-.41.693-.41 1.214v.878zm6.067 8.922c0-1.082.353-1.952 1.06-2.61.706-.665 1.62-.997 2.745-.997 1.14 0 2.058.328 2.757.986.706.649 1.059 1.547 1.059 2.693v.866c0 1.074-.345 1.944-1.035 2.609-.69.657-1.61.986-2.757.986-1.156 0-2.083-.333-2.781-.998-.699-.665-1.048-1.547-1.048-2.645v-.89zm2.312.938c0 .44.144.817.433 1.13.29.313.65.469 1.084.469.979 0 1.468-.541 1.468-1.623v-.914c0-.481-.136-.866-.409-1.154-.273-.297-.634-.445-1.083-.445-.45 0-.811.148-1.084.445-.273.288-.41.685-.41 1.19v.902zm-6.188 2.044l-1.698-.914 8.56-13.683 1.697.914-8.56 13.683z" fill="#F44336"/></svg>