<svg width="24" height="24" fill="none" xmlns="http://www.w3.org/2000/svg"><path d="M5 7h1v1H5V7zm14 0h-1v1h1V7zM6 12H5v1h1v-1zm12 0h1v1h-1v-1zM5 17h1v1H5v-1zm14 0h-1v1h1v-1z" fill="#034899"/><path fill-rule="evenodd" clip-rule="evenodd" d="M21.732 10A1.99 1.99 0 0 0 22 9V6a2 2 0 0 0-2-2H4a2 2 0 0 0-2 2v3c0 .364.097.706.268 1A1.99 1.99 0 0 0 2 11v3c0 .364.097.706.268 1A1.99 1.99 0 0 0 2 16v3a2 2 0 0 0 2 2h16a2 2 0 0 0 2-2v-3a1.99 1.99 0 0 0-.268-1A1.99 1.99 0 0 0 22 14v-3a1.99 1.99 0 0 0-.268-1zM20 6H4v3h16V6zm0 8v-3H4v3h16zM4 16v3h16v-3H4z" fill="#034899"/></svg>