<svg width="24" height="24" fill="none" xmlns="http://www.w3.org/2000/svg"><path fill-rule="evenodd" clip-rule="evenodd" d="M12.523 3c-1.173 0-2.218.576-2.894 1.475l-5.318 6.457A5.534 5.534 0 0 0 3 14.534c0 2.922 2.207 5.3 4.96 5.388l11.2.072a1 1 0 0 0 1.004-.926l.677-9.173a2 2 0 0 0-1.994-2.147h-2.728c.06-.278.092-.567.092-.864C16.21 4.74 14.56 3 12.523 3zm-.926 15.49a5.415 5.415 0 0 0 1.253-1.895l.002-.004c.024-.06.046-.121.068-.183l2.751-7.396h3.826c.008 0 .009.01.002.012a.006.006 0 0 0-.005.005l-.581 8.528a1 1 0 0 1-.998.933h-6.318zM7.54 9.178l3.23-3.928.008.005c.429-.51 1.048-.837 1.745-.837 1.291 0 2.341 1.107 2.341 2.466 0 .36-.077.698-.208 1.006l.003.002-1.762 4.705c-.739-2.02-2.6-3.453-4.778-3.453-.196 0-.389.011-.579.034zm-3.194 5.356c0-1.048.388-2.002 1.02-2.713l.01-.01c.688-.769 1.663-1.25 2.743-1.25 2.08 0 3.772 1.783 3.772 3.973S10.2 18.507 8.12 18.507s-3.773-1.783-3.773-3.973z" fill="#034899"/><path fill-rule="evenodd" clip-rule="evenodd" d="M7.96 19.922C5.208 19.834 3 17.456 3 14.534c0-1.385.496-2.648 1.31-3.602l5.32-6.457C10.304 3.576 11.35 3 12.522 3c2.037 0 3.688 1.739 3.688 3.884a4.12 4.12 0 0 1-.092.864h2.728a2 2 0 0 1 1.994 2.147l-.677 9.173a1 1 0 0 1-1.004.926l-11.2-.072zm8.457-12.424c.029-.2.044-.405.044-.614 0-2.27-1.751-4.134-3.938-4.134-1.256 0-2.371.617-3.09 1.57l-5.314 6.451a5.784 5.784 0 0 0-1.369 3.763c0 3.045 2.303 5.546 5.203 5.638l11.44.073a1 1 0 0 0 1.003-.926l.715-9.674a2 2 0 0 0-1.995-2.147h-2.698zm-3.334 9.188a5.695 5.695 0 0 1-.916 1.553h5.515a1 1 0 0 0 .997-.932l.476-6.977a1 1 0 0 0-.998-1.068h-2.312l-2.69 7.232a6.072 6.072 0 0 1-.07.188l-.002.004zm-.163-.278l2.751-7.396h3.826c.008 0 .009.01.002.012a.006.006 0 0 0-.005.005l-.581 8.528a1 1 0 0 1-.998.933h-6.318a5.432 5.432 0 0 0 1.253-1.895l.002-.004c.024-.06.046-.121.068-.183zM10.777 5.255l-.006-.005-3.23 3.928a4.9 4.9 0 0 1 .578-.034c2.053 0 3.824 1.273 4.64 3.11.05.112.096.227.138.343l1.762-4.705-.003-.002c.131-.308.208-.647.208-1.006 0-1.36-1.05-2.466-2.341-2.466-.697 0-1.316.327-1.745.837zm3.584 2.722l-.01-.007.075-.178c.12-.28.188-.585.188-.908 0-1.234-.95-2.216-2.091-2.216-.615 0-1.167.288-1.554.748l-.144.17-.005-.003-2.722 3.31h.02c2.076 0 3.87 1.236 4.763 3.034l1.48-3.95zm-8.808 4.01a3.824 3.824 0 0 0-.957 2.547c0 2.065 1.593 3.723 3.523 3.723 1.93 0 3.522-1.658 3.522-3.723 0-2.064-1.592-3.722-3.522-3.722-1.003 0-1.913.446-2.558 1.165l-.008.01zm-.187-.166a4.074 4.074 0 0 0-1.02 2.713c0 2.19 1.693 3.973 3.773 3.973s3.772-1.783 3.772-3.973-1.692-3.972-3.772-3.972c-1.08 0-2.055.48-2.744 1.248l-.01.011z" fill="#034899"/></svg>