<svg width="24" height="24" fill="none" xmlns="http://www.w3.org/2000/svg"><g clip-path="url(#clip0)"><g clip-path="url(#clip1)"><path d="M14.971 16.98L7.735 9.746l-.25-.25a3.54 3.54 0 0 0-4.99 0 3.54 3.54 0 0 0 0 4.99l7.486 7.486a3.54 3.54 0 0 0 4.99 0 3.539 3.539 0 0 0 0-4.99zm-9.98-2.494l-1.248-1.248a1.77 1.77 0 0 1 0-2.495 1.77 1.77 0 0 1 2.495 0l.187.187.063.062.062.063 5.053 5.052a3.181 3.181 0 0 0-1.622.874 3.18 3.18 0 0 0-.874 1.622L4.99 14.486zm8.733 6.238a1.77 1.77 0 0 1-2.496 0 1.77 1.77 0 0 1 0-2.496 1.77 1.77 0 0 1 2.496 0 1.77 1.77 0 0 1 0 2.496z" fill="#034899"/></g><g clip-path="url(#clip2)"><path d="M22.166 10.177L14.68 2.692a1.742 1.742 0 0 0-1.248-.5l-3.555.063c-.437-.062-.936.187-1.248.5a1.742 1.742 0 0 0-.499 1.247v3.493c0 .5.187.936.499 1.248l7.486 7.485c.312.312.748.5 1.247.5h3.494c.498 0 .935-.188 1.247-.5.312-.312.5-.748.5-1.247v-3.494c.061-.561-.126-.998-.438-1.31zM9.876 7.495V4.002h3.494l5.739 5.739h-1.747c-.436-.063-.935.187-1.247.499a1.742 1.742 0 0 0-.5 1.247v1.747l-4.49-4.491-.562-.562-.686-.686zm11.042 7.548l-3.556-.062v-3.494h3.494l.062 3.556z" fill="#034899"/></g></g><defs><clipPath id="clip0"><path fill="#fff" d="M0 0h24v24H0z"/></clipPath><clipPath id="clip1"><path fill="#fff" transform="rotate(-45 14.474 5.995)" d="M0 0h7.058v17.644H0z"/></clipPath><clipPath id="clip2"><path fill="#fff" transform="rotate(-45 9.756 -3.928)" d="M0 0h8.557v19.143H0z"/></clipPath></defs></svg>