<svg width="24" height="24" fill="none" xmlns="http://www.w3.org/2000/svg"><path d="M21.5 1h-15C4 1 2 2.8 2 5v13.6c0 2.2 2 4 4.5 4 1.7 0 3.1-.8 3.9-2h11.2V1h-.1zm-2 11.8l-5-5 5-5-.1-.1h.1v10.1zM11 11.4l2.2-2.2 3.5 3.5-5.7 5.8v-7.1zm5.8-8.6L11 8.6V5c0-.8-.3-1.6-.7-2.2h6.5zM6.5 3C7.9 3 9 3.9 9 5S7.9 7 6.5 7 4 6.1 4 5s1.1-2 2.5-2zm0 6c.9 0 1.8-.3 2.5-.7v5.5l-.3.3L4 9.4V8.3c.7.4 1.6.7 2.5.7zM4 18.8v-6.6l3.3 3.3L4 18.8zm2.5 1.8c-.4 0-.9-.1-1.2-.3L9 16.6v2c0 1.1-1.1 2-2.5 2zm7-1.8l4.6-4.6 1.4 1.4v3.2h-6z" fill="#034899"/></svg>