<svg width="46" height="18" fill="none" xmlns="http://www.w3.org/2000/svg"><path d="M19.629 9A8.3 8.3 0 0 0 19 5.857c-.106 3.224-3.68 5.72-5.777 7.373h5.252A8.372 8.372 0 0 0 19.628 9zm-3.797-7.099C14.17.713 12.085 0 9.814 0 4.394 0 0 4.03 0 9s4.394 9 9.814 9c2.483 0 4.743-.851 6.47-2.245H9.18l-.021-1.914c4.28-3.413 6.906-5.721 6.906-7.95 0-.83-.345-1.875-1.893-1.875-1.226 0-2.41.652-2.195 3.374H9.48c-.625-3.156 1.247-5.663 4.819-5.663.552 0 1.065.061 1.532.174z" fill="#AFCA0B"/><path d="M28.732 6.22h2.322c.079-1.619-.516-4.184-4.346-4.184-2.817 0-4.862 1.547-4.862 4.767 0 .437.02 2.693.02 4.094 0 3.494 2.64 4.258 4.862 4.258 1.33 0 3.254-.273 4.147-1.164V8.422H26.51v2.02h1.945v2.456c-1.47.455-4.148.638-4.148-2.455v-3.64c0-2.165 1.092-2.912 2.301-2.912 1.251 0 2.124.583 2.124 2.33zm17.267 5.406c.1-4.986-6.13-3.33-6.07-6.115.019-.982.714-1.62 1.844-1.62 1.21 0 1.925.656 1.904 2.366h2.282c.06-1.547-.336-4.185-4.106-4.185-2.341 0-4.266 1.056-4.306 3.403-.1 4.785 6.17 3.22 6.07 6.113-.039 1.183-.97 1.71-2.023 1.71-1.23 0-2.222-.654-2.023-2.62h-2.302c-.258 2.602.992 4.46 4.306 4.46 2.797 0 4.384-1.42 4.424-3.512zm-10.481 3.347h-2.342V2.236h2.342v12.737zm0 0h-2.342V2.236h2.342v12.737z" fill="#3C3C3B"/></svg>