<svg width="63" height="21" xmlns="http://www.w3.org/2000/svg"><path d="M28.28 14.402h-4.17L23.174 17H21.82l3.801-9.953h1.149L30.576 17H29.23l-.95-2.598zm-3.773-1.08h3.384l-1.696-4.655-1.688 4.655zM33.093 17h-1.265V6.5h1.265V17zm3.746-9.188v1.792h1.38v.977h-1.38v4.587c0 .296.061.52.184.67.123.146.333.219.63.219.145 0 .346-.028.6-.082V17a3.668 3.668 0 0 1-.97.137c-.565 0-.991-.171-1.278-.513-.287-.342-.43-.827-.43-1.456v-4.587h-1.348v-.977h1.347V7.813h1.265zm5.934 9.325c-1.003 0-1.819-.328-2.448-.985-.629-.66-.943-1.542-.943-2.645v-.233c0-.733.139-1.387.417-1.961a3.284 3.284 0 0 1 1.176-1.354 2.958 2.958 0 0 1 1.64-.492c.962 0 1.71.317 2.242.95.534.633.8 1.54.8 2.72v.527h-5.01c.018.73.23 1.32.635 1.77.41.447.93.67 1.559.67.446 0 .825-.09 1.135-.273.31-.182.58-.424.813-.725l.773.602c-.62.952-1.55 1.429-2.79 1.429zm-.158-6.631c-.51 0-.939.187-1.285.56-.346.37-.56.89-.642 1.559h3.705v-.096c-.037-.642-.21-1.139-.52-1.49-.31-.355-.73-.533-1.258-.533zm8.087.232a3.789 3.789 0 0 0-.622-.048c-.83 0-1.392.354-1.688 1.06V17h-1.265V9.604h1.23l.02.854c.416-.66 1.003-.991 1.765-.991.246 0 .432.032.56.095v1.176zm4.744 0a3.79 3.79 0 0 0-.622-.048c-.83 0-1.392.354-1.688 1.06V17H51.87V9.604h1.23l.021.854c.415-.66 1.003-.991 1.764-.991.246 0 .433.032.56.095v1.176zM60.908 17c-.073-.146-.132-.406-.178-.78-.587.611-1.29.917-2.105.917-.73 0-1.328-.205-1.798-.616a2.016 2.016 0 0 1-.697-1.572c0-.77.291-1.367.875-1.79.588-.43 1.413-.643 2.474-.643h1.231v-.581c0-.443-.132-.793-.397-1.053-.264-.264-.654-.397-1.169-.397-.45 0-.829.114-1.134.342-.306.228-.458.504-.458.827H56.28c0-.369.13-.724.39-1.066a2.7 2.7 0 0 1 1.066-.82c.452-.2.946-.301 1.484-.301.852 0 1.52.214 2.003.642.483.424.733 1.01.752 1.757v3.405c0 .678.086 1.219.26 1.62V17h-1.327zm-2.098-.964a2.21 2.21 0 0 0 1.127-.308 1.86 1.86 0 0 0 .773-.8v-1.517h-.991c-1.55 0-2.325.454-2.325 1.36 0 .397.133.707.397.93.264.223.604.335 1.019.335z" fill-opacity=".6"/><path fill-rule="evenodd" clip-rule="evenodd" d="M12 17.112V0H0v21l12-3.888z" fill="#E30016"/><path fill-rule="evenodd" clip-rule="evenodd" d="M7.749 9.036H6.305c-.95 0-2.347.976-2.347 3.29 0 1.89 1.091 2.59 2.171 2.59.61 0 1.62-1.085 1.62-2.374V9.036zM11 15.626H7.749v-.879C7.197 15.265 6.035 16 4.732 16 3.442 16 1 15.06 1 12.29c0-2.76 3.122-4.133 4.93-4.133h1.819V6.193c0-.699-.493-1.326-1.373-1.326-.892 0-1.972.603-1.972 2.145H1.81C1.81 5.988 2.49 4 6.4 4c3.92 0 4.33 1.807 4.33 2.614v7.892c0 .663.27 1.12.27 1.12z" fill="#fff"/></svg>