<svg width="30" height="21" fill="none" xmlns="http://www.w3.org/2000/svg"><path d="M0 0v2.625h9.13V5.25H1.304v2.625h5.218V10.5H1.304v6.563h2.609C3.913 19.236 5.665 21 7.826 21c2.161 0 3.913-1.763 3.913-3.938h7.826c0 2.175 1.752 3.938 3.913 3.938 2.162 0 3.913-1.763 3.913-3.938H30V10.5l-3.554-7.15a1.299 1.299 0 0 0-1.164-.725H20.87A2.616 2.616 0 0 0 18.26 0H0zm20.87 4.922h3.806l2.771 5.578H20.87V4.922zm-13.044 10.5c.899 0 1.63.736 1.63 1.64 0 .905-.731 1.641-1.63 1.641-.899 0-1.63-.736-1.63-1.64 0-.905.731-1.641 1.63-1.641zm15.652 0c.899 0 1.63.736 1.63 1.64 0 .905-.731 1.641-1.63 1.641-.898 0-1.63-.736-1.63-1.64 0-.905.732-1.641 1.63-1.641z" fill="#034899"/></svg>