<svg width="68" height="22" fill="none" xmlns="http://www.w3.org/2000/svg"><path d="M0 2a2 2 0 0 1 2-2h64a2 2 0 0 1 2 2v18a2 2 0 0 1-2 2H2a2 2 0 0 1-2-2V2z" fill="#2E6BE5"/><path d="M11.37 11.904C9.925 11.51 8.84 10.37 8.84 8.72c0-2.042 1.727-3.221 3.575-3.221h8.8v2.475h-5.143V9.9h3.977v2.396h-3.977v3.418h-2.733V7.896h-.964c-.442 0-.964.275-.964.825 0 .433.281.708.643.865l-.683 2.318zm11.13 3.81V5.5h2.813v10.214H22.5zm7.674-7.7c2.09 0 3.576.982 3.576 3.025v4.675h-2.37v-.785c-.442.785-1.447 1.021-2.411 1.021-1.688 0-2.652-1.179-2.652-2.514 0-1.14.924-2.515 3.214-2.515h1.648v-.117c0-.865-.322-1.179-1.045-1.179-.643 0-1.045.314-1.085.904h-2.41c.12-1.454 1.325-2.515 3.535-2.515zm1.045 4.832v-.432h-1.165c-.683 0-1.206.354-1.206.865 0 .55.402.825 1.085.825.804 0 1.286-.55 1.286-1.258zM41.946 9.35c.523-.943 1.286-1.296 2.29-1.296 1.93 0 2.773 1.178 2.773 3.064v4.596h-2.612V11.63c0-.865-.16-1.375-.924-1.375-.843 0-1.084.628-1.084 1.453v4.007h-2.612V11.63c0-.865-.201-1.375-1.005-1.375-.843 0-1.125.707-1.125 1.571v3.929h-2.692V8.25h2.532v1.1c.522-1.06 1.446-1.336 2.29-1.336 1.004 0 1.727.393 2.17 1.336zm8.84-.079c.522-.942 1.486-1.257 2.41-1.257 2.01 0 3.215 1.65 3.215 3.968 0 2.357-1.246 3.968-3.215 3.968-.924 0-1.848-.275-2.33-1.021v3.535h-2.652V8.25h2.572v1.021zm1.446 4.636c1.125 0 1.567-.903 1.567-1.925 0-1.021-.402-1.886-1.567-1.886-1.085 0-1.567.865-1.567 1.886.04 1.022.482 1.925 1.567 1.925z" fill="#fff"/></svg>