<svg>
  <symbol id="icons_shopping-cart" width="17" height="14" viewBox="0 0 17 14" xmlns="http://www.w3.org/2000/svg">
    <path d="M0.715789,0 C0.321546,0 0,0.314453 0,0.7 C0,1.08555 0.321546,1.4 0.715789,1.4 L2.30395,1.4 L4.18289,8.75 C4.34227,9.37344 4.91266,9.8 5.56974,9.8 L13.7789,9.8 C14.4248,9.8 14.9729,9.38164 15.1434,8.77187 L17,2.1 L5.01053,2.1 L5.36842,3.5 L15.1434,3.5 L13.7789,8.4 L5.56974,8.4 L3.69079,1.05 C3.53141,0.426562 2.96102,0 2.30395,0 L0.715789,0 Z M12.8842,9.8 C11.7071,9.8 10.7368,10.7488 10.7368,11.9 C10.7368,13.0512 11.7071,14 12.8842,14 C14.0613,14 15.0316,13.0512 15.0316,11.9 C15.0316,10.7488 14.0613,9.8 12.8842,9.8 Z M6.44211,9.8 C5.26497,9.8 4.29474,10.7488 4.29474,11.9 C4.29474,13.0512 5.26497,14 6.44211,14 C7.61924,14 8.58947,13.0512 8.58947,11.9 C8.58947,10.7488 7.61924,9.8 6.44211,9.8 Z M6.44211,11.2 C6.84474,11.2 7.1579,11.5062 7.1579,11.9 C7.1579,12.2937 6.84474,12.6 6.44211,12.6 C6.03947,12.6 5.72632,12.2937 5.72632,11.9 C5.72632,11.5062 6.03947,11.2 6.44211,11.2 Z M12.8842,11.2 C13.2868,11.2 13.6,11.5062 13.6,11.9 C13.6,12.2937 13.2868,12.6 12.8842,12.6 C12.4816,12.6 12.1684,12.2937 12.1684,11.9 C12.1684,11.5062 12.4816,11.2 12.8842,11.2 Z"></path>
  </symbol>

  <symbol id="icons_compare" width="12" height="13" viewBox="0 0 12 13" xmlns="http://www.w3.org/2000/svg">
    <rect width="2" height="13"/>
    <rect x="5" y="6" width="2" height="7"/>
    <rect x="10" y="2" width="2" height="11"/>
  </symbol>

  <symbol id="icons_bookmark" width="10" height="14" viewBox="0 0 10 14" xmlns="http://www.w3.org/2000/svg">
    <path d="M8.57143 1.4V11.8769L5.56286 10.6134L5 10.3768L4.43714 10.6134L1.42857 11.8769V1.4H8.57143ZM8.57143 0H1.42857C0.642857 0 0 0.63 0 1.4V14L5 11.9L10 14V1.4C10 0.63 9.35714 0 8.57143 0Z"/>
  </symbol>

  <symbol id="icons_user" width="13" height="14" viewBox="0 0 13 14" xmlns="http://www.w3.org/2000/svg">
    <path d="M6.5 0C3.99395 0 1.95 2.00106 1.95 4.45454C1.95 5.98828 2.7498 7.35049 3.96094 8.15341C1.64277 9.12784 0 11.38 0 14H1.3C1.3 12.1605 2.29277 10.5597 3.77812 9.66477C4.21484 10.7138 5.27871 11.4545 6.5 11.4545C7.72129 11.4545 8.78516 10.7138 9.22187 9.66477C10.7072 10.5597 11.7 12.1605 11.7 14H13C13 11.38 11.3572 9.12784 9.03906 8.15341C10.2502 7.35049 11.05 5.98828 11.05 4.45454C11.05 2.00106 9.00605 0 6.5 0ZM6.5 1.27273C8.30273 1.27273 9.75 2.68963 9.75 4.45454C9.75 6.21946 8.30273 7.63636 6.5 7.63636C4.69727 7.63636 3.25 6.21946 3.25 4.45454C3.25 2.68963 4.69727 1.27273 6.5 1.27273ZM6.5 8.90909C7.0332 8.90909 7.54102 8.98366 8.02344 9.12784C7.79746 9.74183 7.2084 10.1818 6.5 10.1818C5.7916 10.1818 5.20254 9.74183 4.97656 9.12784C5.45898 8.98366 5.9668 8.90909 6.5 8.90909Z"/>
  </symbol>

  <symbol id="icons_club" width="19" height="14" viewBox="0 0 19 14" xmlns="http://www.w3.org/2000/svg">
    <path d="M18.3512 10.7622V9.34853C18.3512 5.3355 15.5244 1.8241 11.5854 0.866449C11.539 0.684039 11.4463 0.501629 11.3073 0.364821C11.0756 0.136808 10.7512 0 10.4268 0H8.57317C8.24878 0 7.97073 0.136808 7.73902 0.364821C7.6 0.501629 7.50732 0.684039 7.46098 0.866449C3.47561 1.8241 0.64878 5.3355 0.64878 9.34853V10.7622C0.278049 10.8534 0 11.1726 0 11.5375V11.9479C0 12.3127 0.231707 12.6319 0.602439 12.7687C3.05854 13.544 6.20976 14 9.5 14C12.7902 14 15.9878 13.5896 18.3976 12.7687C18.7683 12.6775 19 12.3127 19 11.9479V11.5375C19 11.1726 18.722 10.8534 18.3512 10.7622ZM12.9293 11.2182C12.9293 10.9446 12.6976 10.7166 12.4195 10.7166H1.76098V9.34853C1.76098 6.61238 3.19756 4.14984 5.56098 2.73616L5.88537 6.74919C5.93171 7.0228 6.16341 7.20521 6.39512 7.20521H6.4878C6.76585 7.15961 6.99756 6.88599 6.95122 6.61238L6.58049 2.23453C6.85854 2.09772 7.18293 2.00651 7.46098 1.91531L7.69268 9.02931C7.69268 9.66775 8.24878 10.1238 8.85122 10.1238H10.1951C10.8439 10.1238 11.3537 9.62215 11.3537 9.02931L11.5854 1.96091C11.9098 2.05212 12.1878 2.14332 12.4659 2.28013L12.2341 6.65798C12.1878 6.9316 12.3732 7.20521 12.6976 7.25081H12.7902C13.0683 7.25081 13.3 7.0684 13.3 6.79479L13.4854 2.82736C15.8488 4.19544 17.2854 6.70358 17.2854 9.39414V10.7622H15.5707C15.2927 10.7622 15.061 10.9902 15.061 11.2638C15.061 11.5375 15.2927 11.7655 15.5707 11.7655H17.9341V11.8111C15.6171 12.5407 12.6512 12.9055 9.5 12.9055C6.34878 12.9055 3.38293 12.5407 1.06585 11.8111V11.7655H12.3732C12.6976 11.7655 12.9293 11.5375 12.9293 11.2182ZM10.2878 9.02931C10.2878 9.07492 10.2415 9.12052 10.1951 9.12052H8.85122C8.80488 9.12052 8.75854 9.07492 8.75854 9.02931L8.43415 1.14007C8.43415 1.09446 8.43415 1.09446 8.48049 1.04886C8.52683 1.00326 8.52683 1.00326 8.57317 1.00326H10.4268C10.4732 1.00326 10.4732 1.00326 10.5195 1.04886C10.5659 1.09446 10.5659 1.09446 10.5659 1.14007L10.2878 9.02931Z"/>
  </symbol>

  <symbol id="icons_wallet" width="14" height="14" viewBox="0 0 14 14" xmlns="http://www.w3.org/2000/svg">
    <path d="M2.5 0.25C1.26627 0.25 0.25 1.26627 0.25 2.5V12.25C0.25 13.0787 0.92125 13.75 1.75 13.75H12.25C13.0787 13.75 13.75 13.0787 13.75 12.25V4.75C13.75 3.92125 13.0787 3.25 12.25 3.25H4H2.5C2.07623 3.25 1.75 2.92377 1.75 2.5C1.75 2.07623 2.07623 1.75 2.5 1.75H13V0.25H2.5ZM11.5 7.75C11.914 7.75 12.25 8.086 12.25 8.5C12.25 8.914 11.914 9.25 11.5 9.25C11.086 9.25 10.75 8.914 10.75 8.5C10.75 8.086 11.086 7.75 11.5 7.75Z"/>
  </symbol>

  <symbol id="icons_location" width="12" height="14" viewBox="0 0 12 14" xmlns="http://www.w3.org/2000/svg">
    <path fill-rule="evenodd" clip-rule="evenodd" d="M6 0C4.40926 0.00185268 2.88419 0.647758 1.75936 1.79601C0.634537 2.94426 0.00181488 4.50108 0 6.12495C0 11.6217 5.14286 13.7855 5.36315 13.8748C5.77196 14.0417 6.22804 14.0417 6.63685 13.8748C6.85714 13.7855 12 11.6217 12 6.12495C11.9982 4.50108 11.3655 2.94426 10.2406 1.79601C9.11581 0.647758 7.59074 0.00185268 6 0ZM6 12.2499C6 12.2499 1.71429 10.4999 1.71429 6.12495C1.71429 4.96464 2.16581 3.85185 2.96954 3.03138C3.77327 2.21092 4.86336 1.74999 6 1.74999C7.13664 1.74999 8.22673 2.21092 9.03046 3.03138C9.83419 3.85185 10.2857 4.96464 10.2857 6.12495C10.2857 10.4999 6 12.2499 6 12.2499ZM6 3.49997C5.49142 3.49997 4.99426 3.65392 4.57139 3.94236C4.14852 4.23079 3.81894 4.64076 3.62431 5.12041C3.42969 5.60006 3.37876 6.12786 3.47798 6.63705C3.5772 7.14625 3.8221 7.61398 4.18172 7.98109C4.54134 8.3482 4.99953 8.5982 5.49834 8.69949C5.99715 8.80077 6.51417 8.74879 6.98404 8.55011C7.45391 8.35144 7.85551 8.01499 8.13806 7.58332C8.42062 7.15164 8.57143 6.64412 8.57143 6.12495C8.57143 5.42876 8.30051 4.76109 7.81828 4.26881C7.33604 3.77653 6.68199 3.49997 6 3.49997ZM6 6.99994C5.83047 6.99994 5.66475 6.94862 5.5238 6.85248C5.38284 6.75633 5.27298 6.61969 5.2081 6.4598C5.14323 6.29992 5.12626 6.12399 5.15933 5.95425C5.1924 5.78452 5.27403 5.62861 5.39391 5.50624C5.51378 5.38387 5.66651 5.30053 5.83278 5.26677C5.99905 5.23301 6.17139 5.25034 6.32801 5.31657C6.48464 5.38279 6.6185 5.49494 6.71269 5.63883C6.80687 5.78272 6.85714 5.95189 6.85714 6.12495C6.85714 6.35701 6.76684 6.57957 6.60609 6.74367C6.44535 6.90776 6.22733 6.99994 6 6.99994Z"/>
  </symbol>

  <symbol id="icons_search" width="20" height="20" viewBox="0 0 20 20" xmlns="http://www.w3.org/2000/svg">
    <path d="M19.0332 17.2732L16.3995 14.6395C17.7233 12.8706 18.3279 10.666 18.0915 8.46934C17.8551 6.27269 16.7954 4.24713 15.1256 2.80043C13.4558 1.35372 11.3 0.593286 9.09205 0.672207C6.88413 0.751129 4.78807 1.66354 3.22584 3.22578C1.66361 4.78801 0.75119 6.88406 0.672269 9.09199C0.593347 11.2999 1.35378 13.4558 2.80049 15.1255C4.24719 16.7953 6.27275 17.8551 8.4694 18.0914C10.6661 18.3278 12.8707 17.7232 14.6395 16.3994L17.2732 19.0332C17.512 19.2376 17.8192 19.3445 18.1333 19.3324C18.4475 19.3202 18.7455 19.19 18.9678 18.9677C19.1901 18.7454 19.3203 18.4474 19.3324 18.1333C19.3446 17.8191 19.2377 17.512 19.0332 17.2732ZM3.16846 9.42193C3.16846 8.18757 3.53449 6.98093 4.22027 5.95459C4.90604 4.92825 5.88076 4.12832 7.02116 3.65595C8.16157 3.18358 9.41644 3.05999 10.6271 3.3008C11.8377 3.54161 12.9498 4.13602 13.8226 5.00884C14.6954 5.88167 15.2898 6.99372 15.5306 8.20436C15.7715 9.41501 15.6479 10.6699 15.1755 11.8103C14.7031 12.9507 13.9032 13.9254 12.8769 14.6112C11.8505 15.297 10.6439 15.663 9.40951 15.663C7.75428 15.663 6.16685 15.0054 4.99642 13.835C3.826 12.6646 3.16846 11.0772 3.16846 9.42193Z"/>
  </symbol>

  <symbol id="icons_tel" width="9" height="10" viewBox="0 0 9 10" xmlns="http://www.w3.org/2000/svg">
    <path d="M7.69606 6.49625C7.13475 6.01395 6.56351 5.72087 6.00928 6.20317L5.6776 6.4934C5.43521 6.70539 4.98446 7.69276 3.2424 5.67961C1.50034 3.67073 2.5365 3.35773 2.78031 3.14859L3.11341 2.85693C3.6648 2.37463 3.45643 1.76713 3.05813 1.14113L2.81858 0.762685C2.41885 0.139533 1.98228 -0.270211 1.42947 0.210669L1.13038 0.473872C0.885161 0.651713 0.201945 1.23361 0.0361018 2.33764C-0.16376 3.66219 0.46701 5.18023 1.90857 6.84482C3.34871 8.51082 4.7605 9.34738 6.09575 9.33316C7.20562 9.32035 7.8775 8.72281 8.08728 8.50513L8.38636 8.24193C8.93917 7.76105 8.59615 7.27021 8.03342 6.78791L7.69606 6.49625Z"/>
  </symbol>

  <symbol id="icons_cart" width="29" height="24" viewBox="0 0 29 24" xmlns="http://www.w3.org/2000/svg">
    <path d="M1.19298 0.333374C0.53591 0.333374 0 0.857463 0 1.50004C0 2.14262 0.53591 2.66671 1.19298 2.66671H3.83991L6.97149 14.9167C7.23712 15.9558 8.18777 16.6667 9.28289 16.6667H22.9649C24.0414 16.6667 24.9548 15.9694 25.239 14.9532L28.3333 3.83337H8.35088L8.94737 6.16671H25.239L22.9649 14.3334H9.28289L6.15132 2.08337C5.88569 1.04431 4.93503 0.333374 3.83991 0.333374H1.19298ZM21.4737 16.6667C19.5118 16.6667 17.8947 18.2481 17.8947 20.1667C17.8947 22.0853 19.5118 23.6667 21.4737 23.6667C23.4356 23.6667 25.0526 22.0853 25.0526 20.1667C25.0526 18.2481 23.4356 16.6667 21.4737 16.6667ZM10.7368 16.6667C8.77495 16.6667 7.15789 18.2481 7.15789 20.1667C7.15789 22.0853 8.77495 23.6667 10.7368 23.6667C12.6987 23.6667 14.3158 22.0853 14.3158 20.1667C14.3158 18.2481 12.6987 16.6667 10.7368 16.6667ZM10.7368 19C11.4079 19 11.9298 19.5105 11.9298 20.1667C11.9298 20.823 11.4079 21.3334 10.7368 21.3334C10.0658 21.3334 9.54386 20.823 9.54386 20.1667C9.54386 19.5105 10.0658 19 10.7368 19ZM21.4737 19C22.1447 19 22.6667 19.5105 22.6667 20.1667C22.6667 20.823 22.1447 21.3334 21.4737 21.3334C20.8026 21.3334 20.2807 20.823 20.2807 20.1667C20.2807 19.5105 20.8026 19 21.4737 19Z"/>
  </symbol>

  <symbol id="icons_mail" width="20" height="16" viewBox="0 0 20 16" xmlns="http://www.w3.org/2000/svg">
    <path d="M18 0H2C0.9 0 0.00999999 0.9 0.00999999 2L0 14C0 15.1 0.9 16 2 16H18C19.1 16 20 15.1 20 14V2C20 0.9 19.1 0 18 0ZM18 14H2V4L10 9L18 4V14ZM10 7L2 2H18L10 7Z"/>
  </symbol>

  <symbol id="icons-f-delivery" width="40" height="29" viewBox="0 0 40 29" xmlns="http://www.w3.org/2000/svg">
    <path d="M0 0.333344V3.83334H12.1739V7.33334H1.73913V10.8333H8.69565V14.3333H1.73913V23.0833H5.21739C5.21739 25.9831 7.55304 28.3333 10.4348 28.3333C13.3165 28.3333 15.6522 25.9831 15.6522 23.0833H24.3478H26.087C26.087 25.9831 28.4226 28.3333 31.3043 28.3333C34.1861 28.3333 36.5217 25.9831 36.5217 23.0833H40V14.3333L35.2615 4.80063C34.9676 4.20738 34.3684 3.83334 33.7092 3.83334H27.8261C27.8261 1.89959 26.2696 0.333344 24.3478 0.333344H0ZM27.8261 6.89584H32.9008L36.5965 14.3333H27.8261V6.89584ZM10.4348 20.8958C11.633 20.8958 12.6087 21.8776 12.6087 23.0833C12.6087 24.2891 11.633 25.2708 10.4348 25.2708C9.23652 25.2708 8.26087 24.2891 8.26087 23.0833C8.26087 21.8776 9.23652 20.8958 10.4348 20.8958ZM31.3043 20.8958C32.5026 20.8958 33.4783 21.8776 33.4783 23.0833C33.4783 24.2891 32.5026 25.2708 31.3043 25.2708C30.1061 25.2708 29.1304 24.2891 29.1304 23.0833C29.1304 21.8776 30.1061 20.8958 31.3043 20.8958Z"/>
  </symbol>

  <symbol id="icons-f-replace" width="38" height="38" viewBox="0 0 38 38" xmlns="http://www.w3.org/2000/svg">
    <path d="M22.7335 0.333344V13.4L28.5632 7.57032C31.8309 10.3066 33.9335 14.3905 33.9335 19V20.8667H37.6668V19C37.6668 13.3811 35.1499 8.35294 31.2064 4.92709L35.8002 0.333344H22.7335ZM11.2819 1.90105L8.05173 3.76772L9.91839 7.00157L13.1486 5.13491L11.2819 1.90105ZM3.76787 8.05157L1.9012 11.2818L5.13506 13.1484L7.00173 9.91824L3.76787 8.05157ZM0.333496 17.1333V19C0.333496 24.6189 2.8504 29.6471 6.79391 33.0729L2.20016 37.6667H15.2668V24.6L9.43714 30.4297C6.16938 27.6935 4.06683 23.6095 4.06683 19V17.1333H0.333496ZM32.8653 24.8479L30.9986 28.0818L34.2325 29.9485L36.0991 26.7146L32.8653 24.8479ZM28.0819 30.9984L24.8517 32.8651L26.7184 36.099L29.9486 34.2323L28.0819 30.9984Z"/>
  </symbol>

  <symbol id="icons-f-setup" width="38" height="38" viewBox="0 0 38 38" xmlns="http://www.w3.org/2000/svg">
    <path d="M25.9499 14.5644C27.649 14.7492 29.3481 15.4885 30.4808 16.5974L32.9351 19C35.0118 17.1518 36.3333 14.3795 36.3333 11.4225C36.3333 10.1287 36.1445 8.65018 35.5782 7.35645L35.2006 6.61717L31.4248 10.3135C30.6696 11.0528 29.7257 11.4225 28.7817 11.4225C27.8378 11.4225 26.8938 11.0528 26.1386 10.3135C24.6283 8.83499 24.6283 6.61717 26.1386 5.13862L29.9145 1.44225L29.1593 1.07262C27.8378 0.518162 26.5162 0.333344 25.0059 0.333344C20.6637 0.333344 16.8879 2.73598 15 6.24754L21.2301 12.3465C22.9292 12.3465 24.8171 13.0858 25.9499 14.5644Z" fill="#034899"/>
    <path d="M12.3172 23.1111C11.9595 22.1389 11.7807 20.9722 11.9595 19.8056L9.99203 17.6667L5.16276 22.9167C2.30098 23.6945 0.333496 26.4167 0.333496 29.5278C0.333496 33.2222 3.19528 36.3334 6.59366 36.3334C9.45545 36.3334 11.9595 34.1945 12.675 31.2778L15.0002 28.75C14.4636 27.7778 14.2847 26.8056 14.1059 25.8334C13.2115 25.0556 12.675 24.2778 12.3172 23.1111ZM6.59366 32.4445C5.16276 32.4445 3.91073 31.0834 3.91073 29.5278C3.91073 27.9722 5.16276 26.6111 6.59366 26.6111C8.02455 26.6111 9.27659 27.7778 9.27659 29.5278C9.27659 31.0834 8.02455 32.4445 6.59366 32.4445Z" fill="#034899"/>
    <path d="M36.5468 29.0511L27.4002 19.9136C26.6535 19.1677 25.5335 18.7948 24.6002 18.7948H23.2935L22.7335 17.6759C22.3602 16.7435 21.4268 16.3705 20.4935 16.557L19.5602 16.7435L8.36016 5.36827V2.94405L2.94683 0.333344L0.333496 2.94405L2.94683 8.16546H5.56016L16.7602 19.3542L16.2002 20.4731C16.0135 20.846 16.0135 21.4055 16.2002 21.9649C16.3868 22.5243 16.7602 22.7108 17.1335 22.8973L18.4402 23.4567V24.7621C18.4402 25.881 18.8135 26.8133 19.5602 27.5593L28.1468 36.1373L29.2668 37.0697C30.7602 38.0021 32.8135 37.8156 33.9335 36.6967L36.5468 34.086C37.2935 33.3401 37.6668 32.4077 37.6668 31.4753C37.6668 30.5429 37.2935 29.797 36.5468 29.0511Z"/>
  </symbol>

  <symbol id="icons-f-calculator" width="30" height="37" viewBox="0 0 30 37" xmlns="http://www.w3.org/2000/svg">
    <path d="M26.0002 0.333344H4.00016C1.97433 0.333344 0.333496 1.94434 0.333496 3.93334V32.7333C0.333496 34.7223 1.97433 36.3333 4.00016 36.3333H26.0002C28.026 36.3333 29.6668 34.7223 29.6668 32.7333V3.93334C29.6668 1.94434 28.026 0.333344 26.0002 0.333344ZM26.0002 11.1333H4.00016V3.93334H26.0002V11.1333ZM9.50016 18.3333H5.8335V14.7333H9.50016V18.3333ZM9.50016 25.5333H5.8335V21.9333H9.50016V25.5333ZM9.50016 32.7333H5.8335V29.1333H9.50016V32.7333ZM24.1668 32.7333H13.1668V29.1333H24.1668V32.7333ZM16.8335 25.5333H13.1668V21.9333H16.8335V25.5333ZM24.1668 25.5333H20.5002V21.9333H24.1668V25.5333ZM24.1668 18.3333H20.5002V14.7333H24.1668V18.3333ZM16.8335 18.3333H13.1668V14.7333H16.8335V18.3333Z"/>
  </symbol>

  <symbol id="icons-f-credit" width="39" height="38" viewBox="0 0 39 38" xmlns="http://www.w3.org/2000/svg">
    <path d="M3.86667 0.333344C1.74 0.333344 0 2.10176 0 4.26317V12.1228H4.40286L0.385156 28.8246C-0.968177 33.9333 1.54591 37.6667 6.95925 37.6667H31.7074C37.1208 37.6667 39.6348 34.1298 38.2815 28.8246L34.143 12.1228H38.6667V4.26317C38.6667 2.10176 36.9267 0.333344 34.8 0.333344H3.86667ZM9.85925 6.22808H13.2917L12.0833 14.0877H16.8676L17.2792 6.22808H21.3875L21.5952 10.1579H25.9792L25.375 6.22808H28.8074L34.6074 30.0028C34.9941 31.3782 34.9948 32.3606 34.4148 32.9501C34.0282 33.5396 33.0608 33.7369 31.7074 33.7369H6.95925C6.18591 33.7369 4.83182 33.5396 4.25182 32.9501C3.86516 32.3606 3.67258 31.1825 4.05925 29.807L9.85925 6.22808ZM21.7991 14.0877L22.1049 19.9825H27.4896L26.5833 14.0877H21.7991ZM10.875 21.9474L9.66667 29.807H16.0482L16.4598 21.9474H10.875ZM22.3126 23.9123L22.6185 29.807H29L28.0938 23.9123H22.3126Z"/>
  </symbol>

  <symbol id="icons-f-palette" width="38" height="38" viewBox="0 0 38 38" xmlns="http://www.w3.org/2000/svg">
    <path d="M20.3325 0.379603C8.97373 -0.408139 -0.408239 8.97196 0.379503 20.3308C1.06458 30.2037 9.67747 37.6667 19.5728 37.6667H20.8664C22.9291 37.6667 24.5998 35.996 24.5998 33.9333V28.3332C24.5998 26.2706 26.2705 24.5999 28.3332 24.5999H33.9332C35.9959 24.5999 37.6666 22.9292 37.6666 20.8665V19.5729C37.6666 9.67757 30.2036 1.06468 20.3325 0.379603ZM16.1997 4.06631C17.7453 4.06631 18.9997 5.32072 18.9997 6.86634C18.9997 8.41196 17.7453 9.66637 16.1997 9.66637C14.6541 9.66637 13.3996 8.41196 13.3996 6.86634C13.3996 5.32072 14.6541 4.06631 16.1997 4.06631ZM6.86624 24.5999C5.32063 24.5999 4.06621 23.3455 4.06621 21.7998C4.06621 20.2542 5.32063 18.9998 6.86624 18.9998C8.41186 18.9998 9.66627 20.2542 9.66627 21.7998C9.66627 23.3455 8.41186 24.5999 6.86624 24.5999ZM8.73293 15.2664C7.18731 15.2664 5.9329 14.012 5.9329 12.4664C5.9329 10.9208 7.18731 9.66637 8.73293 9.66637C10.2785 9.66637 11.533 10.9208 11.533 12.4664C11.533 14.012 10.2785 15.2664 8.73293 15.2664ZM17.133 33.9333C15.0703 33.9333 13.3996 32.2626 13.3996 30.1999C13.3996 28.1372 15.0703 26.4666 17.133 26.4666C19.1957 26.4666 20.8664 28.1372 20.8664 30.1999C20.8664 32.2626 19.1957 33.9333 17.133 33.9333ZM25.5331 11.5331C23.9875 11.5331 22.7331 10.2786 22.7331 8.73303C22.7331 7.18741 23.9875 5.933 25.5331 5.933C27.0787 5.933 28.3332 7.18741 28.3332 8.73303C28.3332 10.2786 27.0787 11.5331 25.5331 11.5331ZM31.1332 20.8665C29.5876 20.8665 28.3332 19.6121 28.3332 18.0665C28.3332 16.5208 29.5876 15.2664 31.1332 15.2664C32.6788 15.2664 33.9332 16.5208 33.9332 18.0665C33.9332 19.6121 32.6788 20.8665 31.1332 20.8665Z"/>
  </symbol>

</svg>
