<svg width="85" height="17" fill="none" xmlns="http://www.w3.org/2000/svg"><path d="M5.473 1.225h-.977c-.301 0-.593.061-.875.185a1.986 1.986 0 0 0-.752.594c-.22.273-.395.622-.528 1.05-.131.426-.197.936-.197 1.53 0 .58.073 1.074.217 1.475.144.403.336.734.574.995.239.259.508.447.809.565.3.118.614.176.94.176h.79V1.224zM1.711 14.312H0L3.047 8.76c-.89-.42-1.526-.98-1.909-1.68C.756 6.382.564 5.55.564 4.584c0-.743.107-1.398.32-1.967a4.278 4.278 0 0 1 .865-1.439c.364-.39.787-.683 1.27-.882A4.012 4.012 0 0 1 4.553 0H6.96v14.312H5.473v-5.31h-.977l-2.785 5.31z" fill="red"/><path fill-rule="evenodd" clip-rule="evenodd" d="M21.838 16.168h-1.335v-1.874h-4.156v1.874h-1.336v-3.081h.582a8.108 8.108 0 0 0 .707-1.8c.17-.645.297-1.294.385-1.95.088-.656.14-1.305.16-1.95.02-.643.029-1.256.029-1.838v-.815h4.213v8.353h.753v3.081h-.002zm6.51-2.301a6.475 6.475 0 0 1-1.044.455c-.382.13-.813.194-1.289.194-.978 0-1.762-.401-2.351-1.206-.589-.804-.884-1.936-.884-3.397 0-.705.06-1.383.179-2.032.12-.651.3-1.226.546-1.727.244-.502.554-.905.93-1.207.377-.303.828-.455 1.354-.455.778 0 1.405.384 1.88 1.151.478.767.717 1.9.717 3.398v.816H24.34c0 1.04.178 1.85.536 2.432.358.582.918.873 1.684.873.288 0 .586-.04.893-.12.307-.082.549-.159.724-.234l.17 1.06v-.002zM25.732 5.68c-.212 0-.4.073-.564.221-.163.15-.3.356-.413.623a4.26 4.26 0 0 0-.264.937c-.062.36-.106.749-.131 1.17h2.483V8.43c0-.063-.003-.131-.01-.205a2.943 2.943 0 0 1-.01-.242c-.05-.73-.169-1.297-.357-1.699-.188-.401-.432-.603-.733-.603zm-6.131.24v7.166h-2.69c.25-.409.457-.891.62-1.448.164-.557.295-1.148.395-1.773.1-.625.17-1.262.207-1.912.038-.65.057-1.266.057-1.847V5.92h1.41zm-5.455-1.188v9.561h-1.487V9.727h-2.22v4.566H8.936v-9.56h1.505V8.5h2.22V4.733h1.486zm21.388 9.561h-1.675l-2.314-4.716-.17-.203v4.918h-1.504v-9.56h1.504v4.343l.17-.185 2.051-4.158h1.599l-2.37 4.306 2.709 5.254v.001zm1.937-4.753c0 1.126.176 2.011.526 2.655.352.643.89.965 1.618.965.276 0 .558-.04.846-.12a5.92 5.92 0 0 0 .697-.233l.15 1.059a5.591 5.591 0 0 1-.968.455 3.54 3.54 0 0 1-1.213.194c-.965 0-1.747-.395-2.343-1.187-.594-.793-.893-1.93-.893-3.416 0-.817.085-1.56.255-2.228.169-.668.398-1.237.686-1.707.288-.47.633-.835 1.034-1.095.4-.26.834-.39 1.299-.39.412 0 .786.056 1.119.167.332.112.63.26.893.446l-.772 1.281a2.67 2.67 0 0 0-.593-.502 1.25 1.25 0 0 0-.667-.203c-.263 0-.501.11-.714.333a2.608 2.608 0 0 0-.527.873c-.138.36-.245.77-.32 1.235a8.859 8.859 0 0 0-.113 1.419zm10.333 2.532h.732l2.009-7.37c.149-.556.28-1.093.449-1.834h.075a35.504 35.504 0 0 0-.075 1.964v9.278h.9V.868h-1.05l-2.288 8.464a15.308 15.308 0 0 0-.32 1.537h-.057a12.85 12.85 0 0 0-.281-1.536L45.628.868h-1.09V14.11h.826V4.833c0-.668-.018-1.335-.056-1.965h.056c.113.611.264 1.204.451 1.89l1.988 7.314.001.001zm8.07 1.52c.882 0 1.501-.833 1.838-1.834V9.185h-1.013c-1.557 0-2.308.703-2.308 2.333 0 1.315.583 2.074 1.482 2.074zm2.101.518c-.075-.24-.168-.593-.224-1.26-.451.89-1.127 1.445-2.065 1.445-1.276 0-2.158-1-2.158-2.704 0-2 1.108-3.037 3.153-3.037h1.032V7.388c0-1.426-.544-2.037-1.576-2.037a2.39 2.39 0 0 0-1.99 1.019l-.243-.834c.375-.481 1.163-.945 2.233-.945 1.557 0 2.44.852 2.44 2.705v5.093c0 .648.094 1.37.205 1.722h-.807zm5.255-.519c1.202 0 1.99-1.407 1.99-4.352 0-2.445-.676-3.89-1.765-3.89-.844 0-1.557.89-1.97 1.89v5.221c.375.76.9 1.13 1.745 1.13v.001zm-.056.686a2.153 2.153 0 0 1-1.688-.815V17h-.883V4.776h.77l.075 1.538c.413-.89 1.107-1.723 2.158-1.723 1.576 0 2.496 1.87 2.496 4.575 0 3.425-1.164 5.111-2.928 5.111zm5.5-5l3.283 4.832h.977l-3.342-5 3.116-4.333h-.863l-3.172 4.39v-4.39h-.882v9.334h.882V9.276v.002zm9.795 3.258l.282.705s-.713 1.055-2.214 1.055c-2.008 0-2.928-1.796-2.928-4.852 0-3.057 1.164-4.853 2.759-4.853 1.632 0 2.684 1.685 2.383 5h-4.278c.037 2.557.713 3.946 2.084 3.946 1.256 0 1.913-1 1.913-1.001zm-2.102-7.221c-.995 0-1.802 1.258-1.876 3.593h3.434c.15-2.483-.6-3.593-1.557-3.593zM85 5.499v-.723h-5.255V5.5h2.197v8.61h.88V5.5H85z" fill="#333"/></svg>