<svg width="580" height="277" fill="none" xmlns="http://www.w3.org/2000/svg"><path opacity=".5" d="M580 213.205H0v62.85h580v-62.85z" fill="#333"/><path d="M571.149 223.603H9.783v3.103H571.15v-3.103z" fill="#DBE2E8"/><path d="M107.615 223.603H9.783v3.103h97.832v-3.103z" fill="#FF4D43"/><path d="M117.398 240.983v20.95l14.907-10.552-14.907-10.398zm20.808 0h-3.416v20.95h3.416v-20.95zm-63.046 0v20.95l14.907-10.552-14.908-10.398zm-27.332 0v20.95l-14.752-10.552 14.752-10.398zM26.95 261.822h3.417v-20.95H26.95v20.95zm438.603-14.321l-.621-1.552s1.553-3.569 1.397-3.724l-2.174-2.018c-.155-.155-3.727 1.552-3.727 1.552l-1.708-.621s-1.397-3.724-1.708-3.724h-2.95c-.156 0-1.553 3.724-1.553 3.724l-1.708.621s-3.727-1.552-3.883-1.396l-2.174 2.017c-.155.155 1.553 3.724 1.553 3.724l-.621 1.552s-3.727 1.397-3.727 1.552v2.949c0 .155 3.727 1.551 3.727 1.551l.621 1.552s-1.553 3.57-1.397 3.725l2.174 2.017c.155.155 3.727-1.552 3.727-1.552l1.708.621s1.397 3.569 1.708 3.569h2.95c.156 0 1.553-3.724 1.553-3.724l1.708-.621s3.727 1.552 3.883 1.397l2.174-2.018c.155-.155-1.553-3.724-1.553-3.724l.621-1.552s3.727-1.397 3.727-1.707v-2.948c0 .155-3.727-1.242-3.727-1.242zm-5.435 3.104c0 2.327-2.019 4.19-4.348 4.19-2.329 0-4.348-1.863-4.348-4.19 0-2.328 2.019-4.19 4.348-4.19 2.329 0 4.348 1.862 4.348 4.19zm59.475 10.087h-31.057v-20.329h31.057v20.329zm-28.728-2.328h26.399v-15.829h-26.399v15.829zm61.96-18.001h7.919v7.914h2.33v-10.242h-10.249v2.328zm-12.268 7.914v-7.914h7.92v-2.328h-10.249v10.242h2.329zm20.187 4.345v7.915h-7.919v2.172h10.249v-10.087h-2.33zm-12.267 7.915h-7.92v-7.915h-2.329v10.087h10.249v-2.172z" fill="#fff"/></svg>