<svg width="20" height="20" viewBox="0 0 20 20" fill="none" xmlns="http://www.w3.org/2000/svg">
<path d="M19.0332 17.2732L16.3994 14.6395C17.7232 12.8706 18.3278 10.666 18.0914 8.46934C17.8551 6.27269 16.7953 4.24713 15.1255 2.80043C13.4558 1.35372 11.2999 0.593286 9.09199 0.672207C6.88406 0.751129 4.78801 1.66354 3.22578 3.22578C1.66354 4.78801 0.751129 6.88406 0.672207 9.09199C0.593286 11.2999 1.35372 13.4558 2.80043 15.1255C4.24713 16.7953 6.27269 17.8551 8.46934 18.0914C10.666 18.3278 12.8706 17.7232 14.6395 16.3994L17.2732 19.0332C17.512 19.2376 17.8191 19.3445 18.1333 19.3324C18.4474 19.3202 18.7454 19.19 18.9677 18.9677C19.19 18.7454 19.3202 18.4474 19.3324 18.1333C19.3445 17.8191 19.2376 17.512 19.0332 17.2732ZM3.1684 9.42193C3.1684 8.18757 3.53443 6.98093 4.22021 5.95459C4.90598 4.92825 5.8807 4.12832 7.0211 3.65595C8.16151 3.18358 9.41637 3.05999 10.627 3.3008C11.8377 3.54161 12.9497 4.13602 13.8225 5.00884C14.6954 5.88167 15.2898 6.99372 15.5306 8.20436C15.7714 9.41501 15.6478 10.6699 15.1754 11.8103C14.7031 12.9507 13.9031 13.9254 12.8768 14.6112C11.8505 15.297 10.6438 15.663 9.40945 15.663C7.75422 15.663 6.16678 15.0054 4.99636 13.835C3.82594 12.6646 3.1684 11.0772 3.1684 9.42193V9.42193Z" fill="#0070C9"/>
</svg>
